<svg width="60" height="75" viewBox="0 0 60 75" fill="none" xmlns="http://www.w3.org/2000/svg">
<path d="M0 62.3119H59.6571L39.8353 13.9233L25.2122 42.2978L19.6655 22.7904L0 62.3119Z" fill="#4224FC"/>
<path d="M9.0657 73.3667C8.72632 73.3667 8.40284 73.3136 8.09528 73.2076C7.78771 73.1015 7.51992 72.953 7.29189 72.7621C7.06387 72.5712 6.89683 72.3512 6.79077 72.1019C6.73774 71.9906 6.73774 71.8872 6.79077 71.7917C6.8491 71.6963 6.94456 71.6353 7.07713 71.6088C7.17258 71.5875 7.26538 71.6035 7.35553 71.6565C7.45098 71.7042 7.52257 71.7784 7.57029 71.8792C7.63393 72.0118 7.73733 72.1337 7.88051 72.2451C8.02899 72.3565 8.20664 72.4466 8.41345 72.5155C8.62026 72.5845 8.83768 72.6189 9.0657 72.6189C9.32024 72.6189 9.55356 72.5792 9.76568 72.4996C9.98309 72.4201 10.1581 72.3061 10.2907 72.1576C10.4232 72.0038 10.4895 71.8156 10.4895 71.5928C10.4895 71.3118 10.3782 71.0599 10.1554 70.8372C9.93802 70.6145 9.57742 70.4766 9.07365 70.4236C8.4161 70.3599 7.89907 70.1664 7.52257 69.8429C7.14606 69.5194 6.95781 69.1191 6.95781 68.6418C6.95781 68.2918 7.05592 67.9949 7.25212 67.7509C7.44833 67.507 7.71347 67.3214 8.04755 67.1941C8.38693 67.0669 8.76344 67.0032 9.17706 67.0032C9.50053 67.0032 9.78158 67.0483 10.0202 67.1384C10.2641 67.2286 10.4763 67.3532 10.6566 67.5123C10.8369 67.6714 10.9933 67.8596 11.1259 68.0771C11.2001 68.1937 11.2293 68.3051 11.2134 68.4111C11.2028 68.5119 11.1524 68.5914 11.0622 68.6498C10.9615 68.7134 10.8528 68.7267 10.7361 68.6895C10.6194 68.6524 10.5319 68.5835 10.4736 68.4827C10.3888 68.3289 10.2854 68.199 10.1634 68.093C10.0414 67.9869 9.89825 67.9047 9.73386 67.8464C9.56947 67.7827 9.37592 67.7509 9.1532 67.7509C8.76078 67.7456 8.43201 67.8199 8.16686 67.9736C7.90172 68.1221 7.76915 68.3528 7.76915 68.6657C7.76915 68.8248 7.80892 68.9785 7.88846 69.127C7.97331 69.2702 8.12444 69.3948 8.34186 69.5009C8.56458 69.6069 8.88275 69.6812 9.29637 69.7236C9.92741 69.7872 10.4179 69.9808 10.7679 70.3043C11.1232 70.6224 11.3009 71.044 11.3009 71.569C11.3009 71.8712 11.2372 72.1337 11.11 72.3565C10.988 72.5792 10.8209 72.7674 10.6088 72.9212C10.402 73.0697 10.1634 73.1811 9.89294 73.2553C9.6278 73.3295 9.35205 73.3667 9.0657 73.3667ZM14.0088 73.2871C13.8921 73.2871 13.794 73.2473 13.7145 73.1678C13.6349 73.0883 13.5952 72.9901 13.5952 72.8735V67.0748H14.4224V72.8735C14.4224 72.9901 14.3826 73.0883 14.3031 73.1678C14.2236 73.2473 14.1255 73.2871 14.0088 73.2871ZM11.877 67.8384C11.7657 67.8384 11.6729 67.804 11.5986 67.735C11.5297 67.6608 11.4952 67.568 11.4952 67.4566C11.4952 67.3453 11.5297 67.2551 11.5986 67.1862C11.6729 67.1119 11.7657 67.0748 11.877 67.0748H16.1326C16.2439 67.0748 16.3341 67.1119 16.403 67.1862C16.4773 67.2551 16.5144 67.3453 16.5144 67.4566C16.5144 67.568 16.4773 67.6608 16.403 67.735C16.3341 67.804 16.2439 67.8384 16.1326 67.8384H11.877ZM16.4671 73.2871C16.3186 73.2871 16.2046 73.2235 16.1251 73.0962C16.0455 72.9689 16.0376 72.8337 16.1012 72.6905L18.3364 67.3532C18.4159 67.1676 18.5458 67.0748 18.7261 67.0748C18.917 67.0748 19.0469 67.1676 19.1159 67.3532L21.359 72.7064C21.4173 72.8549 21.4067 72.9901 21.3272 73.1121C21.2529 73.2288 21.1389 73.2871 20.9851 73.2871C20.9056 73.2871 20.8287 73.2659 20.7545 73.2235C20.6855 73.1757 20.6351 73.1121 20.6033 73.0326L18.6307 68.1327H18.8534L16.8489 73.0326C16.8118 73.1174 16.7561 73.1811 16.6819 73.2235C16.6129 73.2659 16.5413 73.2871 16.4671 73.2871ZM16.8887 71.919L17.2068 71.2349H20.3249L20.6431 71.919H16.8887ZM22.6406 73.2871C22.524 73.2871 22.4259 73.2473 22.3463 73.1678C22.2668 73.0883 22.227 72.9901 22.227 72.8735V67.4884C22.227 67.3665 22.2668 67.2684 22.3463 67.1941C22.4259 67.1146 22.524 67.0748 22.6406 67.0748H24.0724C24.4701 67.0748 24.8227 67.1597 25.1303 67.3293C25.4379 67.4937 25.6765 67.7218 25.8462 68.0134C26.0212 68.3051 26.1087 68.6445 26.1087 69.0316C26.1087 69.3922 26.0212 69.713 25.8462 69.994C25.6765 70.2751 25.4379 70.4952 25.1303 70.6542C24.8227 70.8133 24.4701 70.8929 24.0724 70.8929H23.0542V72.8735C23.0542 72.9901 23.0145 73.0883 22.9349 73.1678C22.8607 73.2473 22.7626 73.2871 22.6406 73.2871ZM25.9416 73.2871C25.8674 73.2871 25.7985 73.2712 25.7348 73.2394C25.6765 73.2076 25.6261 73.1572 25.5837 73.0883L24.1519 70.7815L24.9553 70.5508L26.2598 72.6508C26.3553 72.8045 26.3685 72.9504 26.2996 73.0883C26.2307 73.2208 26.1113 73.2871 25.9416 73.2871ZM23.0542 70.1293H24.0724C24.3163 70.1293 24.5311 70.0842 24.7167 69.994C24.9023 69.8986 25.0481 69.7687 25.1542 69.6043C25.2602 69.4346 25.3133 69.2437 25.3133 69.0316C25.3133 68.7982 25.2602 68.5914 25.1542 68.4111C25.0481 68.2308 24.9023 68.0903 24.7167 67.9896C24.5311 67.8888 24.3163 67.8384 24.0724 67.8384H23.0542V70.1293ZM27.5869 73.2871C27.4702 73.2871 27.3721 73.2473 27.2926 73.1678C27.213 73.0883 27.1733 72.9901 27.1733 72.8735V67.4884C27.1733 67.3665 27.213 67.2684 27.2926 67.1941C27.3721 67.1146 27.4702 67.0748 27.5869 67.0748H29.1777C29.5755 67.0748 29.9281 67.1623 30.2357 67.3373C30.5432 67.5123 30.7819 67.7562 30.9515 68.0691C31.1265 68.3767 31.214 68.732 31.214 69.135C31.214 69.5221 31.1265 69.8668 30.9515 70.169C30.7819 70.4713 30.5432 70.7073 30.2357 70.877C29.9281 71.0467 29.5755 71.1315 29.1777 71.1315H28.0005V72.8735C28.0005 72.9901 27.9607 73.0883 27.8812 73.1678C27.807 73.2473 27.7088 73.2871 27.5869 73.2871ZM28.0005 70.3679H29.1777C29.4217 70.3679 29.6364 70.3149 29.822 70.2088C30.0076 70.1027 30.1535 69.9569 30.2595 69.7713C30.3656 69.5857 30.4186 69.3736 30.4186 69.135C30.4186 68.8804 30.3656 68.6577 30.2595 68.4668C30.1535 68.2706 30.0076 68.1168 29.822 68.0055C29.6364 67.8941 29.4217 67.8384 29.1777 67.8384H28.0005V70.3679ZM32.4553 73.2871C32.3386 73.2871 32.2405 73.2473 32.161 73.1678C32.0867 73.0883 32.0496 72.9901 32.0496 72.8735V67.4884C32.0496 67.3718 32.0894 67.2737 32.1689 67.1941C32.2485 67.1146 32.3439 67.0748 32.4553 67.0748C32.5719 67.0748 32.67 67.1146 32.7496 67.1941C32.8291 67.2737 32.8689 67.3718 32.8689 67.4884V72.4599H35.7484C35.865 72.4599 35.9631 72.4996 36.0427 72.5792C36.1222 72.6587 36.162 72.7568 36.162 72.8735C36.162 72.9901 36.1222 73.0883 36.0427 73.1678C35.9631 73.2473 35.865 73.2871 35.7484 73.2871H32.4553ZM36.827 73.2871C36.6785 73.2871 36.5645 73.2235 36.4849 73.0962C36.4054 72.9689 36.3974 72.8337 36.4611 72.6905L38.6962 67.3532C38.7758 67.1676 38.9057 67.0748 39.086 67.0748C39.2769 67.0748 39.4068 67.1676 39.4757 67.3532L41.7189 72.7064C41.7772 72.8549 41.7666 72.9901 41.687 73.1121C41.6128 73.2288 41.4988 73.2871 41.345 73.2871C41.2655 73.2871 41.1886 73.2659 41.1143 73.2235C41.0454 73.1757 40.995 73.1121 40.9632 73.0326L38.9905 68.1327H39.2133L37.2088 73.0326C37.1717 73.1174 37.116 73.1811 37.0417 73.2235C36.9728 73.2659 36.9012 73.2871 36.827 73.2871ZM37.2485 71.919L37.5667 71.2349H40.6848L41.003 71.919H37.2485ZM45.2155 73.3667C44.786 73.3667 44.383 73.2871 44.0065 73.128C43.6353 72.9636 43.3091 72.7383 43.0281 72.4519C42.7523 72.1603 42.5349 71.8209 42.3758 71.4338C42.222 71.0467 42.1452 70.6277 42.1452 70.177C42.1452 69.7315 42.222 69.3179 42.3758 68.9361C42.5349 68.549 42.7523 68.2123 43.0281 67.9259C43.3091 67.6343 43.6353 67.4062 44.0065 67.2419C44.3777 67.0775 44.7807 66.9953 45.2155 66.9953C45.6238 66.9953 45.9738 67.0483 46.2655 67.1544C46.5624 67.2604 46.8594 67.4354 47.1564 67.6793C47.1988 67.7112 47.2306 67.7456 47.2518 67.7827C47.2783 67.8146 47.2942 67.849 47.2995 67.8861C47.3101 67.918 47.3154 67.9577 47.3154 68.0055C47.3154 68.1062 47.2783 68.1911 47.2041 68.26C47.1351 68.3236 47.0503 68.3608 46.9495 68.3714C46.8488 68.3767 46.7507 68.3422 46.6552 68.268C46.459 68.0983 46.2549 67.9683 46.0428 67.8782C45.8359 67.788 45.5602 67.743 45.2155 67.743C44.9026 67.743 44.6083 67.8066 44.3326 67.9339C44.0568 68.0611 43.8129 68.2361 43.6008 68.4589C43.394 68.6816 43.2322 68.9414 43.1156 69.2384C42.9989 69.53 42.9406 69.8429 42.9406 70.177C42.9406 70.5164 42.9989 70.8345 43.1156 71.1315C43.2322 71.4232 43.394 71.6803 43.6008 71.9031C43.8129 72.1258 44.0568 72.3008 44.3326 72.428C44.6083 72.55 44.9026 72.611 45.2155 72.611C45.486 72.611 45.7405 72.5659 45.9791 72.4758C46.223 72.3803 46.4564 72.2504 46.6791 72.086C46.7745 72.0171 46.8673 71.9879 46.9575 71.9985C47.0529 72.0038 47.1325 72.0409 47.1961 72.1099C47.2598 72.1735 47.2916 72.2637 47.2916 72.3803C47.2916 72.4333 47.281 72.4864 47.2598 72.5394C47.2385 72.5871 47.2067 72.6322 47.1643 72.6746C46.878 72.9027 46.5704 73.075 46.2416 73.1917C45.9181 73.3083 45.5761 73.3667 45.2155 73.3667ZM48.9488 73.2871C48.8321 73.2871 48.734 73.2473 48.6545 73.1678C48.5749 73.0883 48.5352 72.9901 48.5352 72.8735V67.4884C48.5352 67.3665 48.5749 67.2684 48.6545 67.1941C48.734 67.1146 48.8321 67.0748 48.9488 67.0748H52.5441C52.6661 67.0748 52.7642 67.1119 52.8384 67.1862C52.9127 67.2551 52.9498 67.3479 52.9498 67.4646C52.9498 67.5759 52.9127 67.6661 52.8384 67.735C52.7642 67.804 52.6661 67.8384 52.5441 67.8384H49.3624V69.7713H51.6453C51.7673 69.7713 51.8654 69.8084 51.9396 69.8827C52.0139 69.9516 52.051 70.0418 52.051 70.1531C52.051 70.2645 52.0139 70.3573 51.9396 70.4315C51.8654 70.5005 51.7673 70.5349 51.6453 70.5349H49.3624V72.5235H52.5441C52.6661 72.5235 52.7642 72.558 52.8384 72.6269C52.9127 72.6958 52.9498 72.786 52.9498 72.8973C52.9498 73.014 52.9127 73.1095 52.8384 73.1837C52.7642 73.2526 52.6661 73.2871 52.5441 73.2871H48.9488Z" fill="#654DFF"/>
<path d="M45.5772 1.29518L47.4708 5.43601L52.0146 5.14228L47.8738 7.03591L48.1675 11.5797L46.2739 7.43887L41.7301 7.73259L45.8709 5.83897L45.5772 1.29518Z" fill="#654DFF"/>
</svg>
